<svg width="396" height="100" viewBox="0 0 396 100" fill="none" xmlns="http://www.w3.org/2000/svg">
<path d="M191.944 35.2861H192.106C192.268 35.5844 192.511 35.9324 192.803 36.3302C193.111 36.7279 193.532 37.0593 194.066 37.3576C194.601 37.6559 195.298 37.7885 196.156 37.7885C197.29 37.7885 198.295 37.4902 199.169 36.9102C200.044 36.3136 200.741 35.4684 201.243 34.3581C201.745 33.2478 202.005 31.922 202.005 30.3808C202.005 28.8396 201.745 27.5139 201.243 26.4036C200.741 25.3098 200.044 24.4646 199.153 23.8681C198.262 23.288 197.258 22.9897 196.124 22.9897C195.249 22.9897 194.552 23.1389 194.034 23.4372C193.499 23.7355 193.095 24.0669 192.787 24.4647C192.495 24.8624 192.268 25.1938 192.106 25.4921H191.879V23.172H189.223V42.8761H191.944V35.2696V35.2861ZM192.301 27.7459C192.576 27.0002 192.997 26.4201 193.532 26.0058C194.083 25.5915 194.747 25.3761 195.541 25.3761C196.335 25.3761 197.047 25.5915 197.598 26.0224C198.149 26.4533 198.57 27.0499 198.846 27.7956C199.121 28.5413 199.267 29.4031 199.267 30.3477C199.267 31.2923 199.121 32.1706 198.846 32.9329C198.57 33.6952 198.149 34.3084 197.614 34.7558C197.064 35.2033 196.383 35.4187 195.573 35.4187C194.763 35.4187 194.131 35.2033 193.581 34.789C193.046 34.3581 192.625 33.7615 192.333 33.0158C192.042 32.2535 191.912 31.3752 191.912 30.3643C191.912 29.3534 192.058 28.4916 192.333 27.7459H192.301Z" fill="#C7C7C7"/>
<path d="M176.716 36.8768C177.688 37.49 178.839 37.8049 180.151 37.8049C181.463 37.8049 182.613 37.49 183.585 36.8768C184.557 36.2637 185.319 35.4019 185.869 34.2916C186.404 33.1813 186.679 31.8887 186.679 30.4138C186.679 28.9389 186.404 27.6297 185.869 26.5194C185.335 25.409 184.573 24.5473 183.585 23.9341C182.613 23.321 181.463 23.0061 180.151 23.0061C178.839 23.0061 177.688 23.321 176.716 23.9341C175.744 24.5473 174.983 25.409 174.432 26.5194C173.897 27.6297 173.622 28.9389 173.622 30.4138C173.622 31.8887 173.897 33.1813 174.432 34.2916C174.967 35.4019 175.728 36.2637 176.716 36.8768ZM176.781 27.8948C177.057 27.116 177.478 26.5028 178.028 26.0388C178.595 25.5748 179.308 25.3428 180.167 25.3428C181.026 25.3428 181.722 25.5748 182.289 26.0388C182.856 26.5028 183.261 27.116 183.536 27.8948C183.812 28.6572 183.941 29.5023 183.941 30.4138C183.941 31.3252 183.812 32.1704 183.536 32.9493C183.261 33.7116 182.856 34.3248 182.289 34.7888C181.722 35.2528 181.026 35.4848 180.167 35.4848C179.308 35.4848 178.595 35.2528 178.028 34.7888C177.461 34.3248 177.057 33.7116 176.781 32.9493C176.522 32.187 176.376 31.3418 176.376 30.4138C176.376 29.4857 176.506 28.6572 176.781 27.8948Z" fill="#C7C7C7"/>
<path d="M145.029 36.5952C146.293 37.3741 147.735 37.7719 149.355 37.7719C150.375 37.7719 151.331 37.6227 152.206 37.3078C153.081 36.993 153.842 36.5621 154.523 35.9987C155.203 35.4186 155.754 34.7557 156.191 33.9603C156.628 33.1648 156.92 32.3031 157.082 31.3751H154.231C154.117 31.9717 153.907 32.5185 153.599 32.9826C153.307 33.4466 152.935 33.8443 152.498 34.1592C152.06 34.4906 151.59 34.7226 151.056 34.8883C150.521 35.054 149.97 35.1369 149.371 35.1369C148.302 35.1369 147.346 34.8552 146.503 34.3083C145.661 33.7614 144.981 32.9494 144.495 31.8888C144.009 30.8116 143.766 29.5024 143.766 27.9613C143.766 26.4201 144.009 25.1109 144.495 24.0503C144.981 22.9731 145.661 22.1776 146.503 21.6142C147.346 21.0673 148.318 20.7856 149.387 20.7856C149.986 20.7856 150.537 20.8684 151.072 21.0342C151.606 21.1999 152.092 21.4485 152.514 21.7799C152.951 22.1113 153.307 22.5091 153.615 22.9897C153.907 23.4702 154.117 24.0171 154.231 24.6303H157.082C156.92 23.6028 156.628 22.6914 156.175 21.8959C155.721 21.1004 155.154 20.421 154.474 19.8575C153.793 19.2941 153.016 18.8798 152.141 18.5815C151.282 18.2832 150.359 18.1506 149.371 18.1506C147.767 18.1506 146.325 18.5484 145.062 19.3272C143.798 20.1061 142.794 21.233 142.065 22.7079C141.336 24.1663 140.963 25.9229 140.963 27.9613C140.963 29.9996 141.319 31.7397 142.048 33.2146C142.777 34.6895 143.782 35.8164 145.045 36.5952H145.029Z" fill="#C7C7C7"/>
<path d="M226.142 27.0829V37.5067H228.815V23.1885H225.882L219.71 33.6122V23.1885H217.037V37.5067H220.002L226.142 27.0829Z" fill="#C7C7C7"/>
<path d="M298.653 38.6501C298.426 39.2798 298.151 39.7439 297.843 40.0256C297.551 40.3073 297.195 40.4564 296.806 40.473C296.417 40.4896 295.98 40.4399 295.477 40.2907L294.83 42.5777C294.992 42.6439 295.251 42.7268 295.575 42.7765C295.915 42.8428 296.287 42.876 296.692 42.876C297.454 42.876 298.102 42.7434 298.685 42.4782C299.252 42.2131 299.754 41.8319 300.159 41.3016C300.58 40.7879 300.921 40.1581 301.18 39.4124L306.947 23.1719H304.015L300.467 34.2917H300.321L296.774 23.1719H293.857L298.977 37.6889L298.637 38.6335L298.653 38.6501Z" fill="#C7C7C7"/>
<path d="M207.448 37.5067H210.105V25.5914H214.673V23.1885H202.863V25.5914H207.448V37.5067Z" fill="#C7C7C7"/>
<path d="M267.145 28.9555H269.122L275.407 37.5067H278.842L271.082 26.9669L278.55 18.4158H275.115L268.068 26.4863H267.145V18.4158H264.326V37.5067H267.145V28.9555Z" fill="#C7C7C7"/>
<path d="M249.195 25.5914H255.448V23.1885H246.506V37.5067H249.195V25.5914Z" fill="#C7C7C7"/>
<path d="M162.784 49.9687C160.937 48.9413 158.718 48.4441 156.109 48.4441H142.518V83.7093H149.808V72.2746H155.931C158.572 72.2746 160.84 71.7774 162.703 70.7831C164.582 69.7888 166.008 68.3968 166.996 66.607C167.984 64.8172 168.47 62.7457 168.47 60.4091C168.47 58.0724 167.984 56.0009 167.012 54.2111C166.04 52.4048 164.647 50.9962 162.8 49.9853L162.784 49.9687ZM160.257 63.4749C159.803 64.3532 159.122 65.0492 158.199 65.5629C157.292 66.0601 156.142 66.3087 154.732 66.3087H149.775V54.5426H154.684C156.093 54.5426 157.259 54.7912 158.183 55.2883C159.106 55.7689 159.787 56.4484 160.24 57.3432C160.694 58.2216 160.937 59.2324 160.937 60.4091C160.937 61.5857 160.71 62.5966 160.24 63.4914L160.257 63.4749Z" fill="#C7C7C7"/>
<path d="M364.637 70.9987C363.551 70.3855 362.223 70.021 360.684 69.9215C362.53 69.5901 363.988 68.9438 365.025 67.9992C366.062 67.0546 366.597 65.8448 366.597 64.4196C366.597 62.1327 365.673 60.3761 363.827 59.1332C361.98 57.8903 359.452 57.2771 356.277 57.2771H345.245V83.726H357.962C360.117 83.726 361.947 83.4442 363.438 82.8642C364.944 82.2842 366.078 81.4556 366.856 80.3784C367.634 79.3013 368.038 78.0086 368.038 76.5006C368.038 75.3405 367.747 74.2799 367.164 73.3353C366.597 72.3907 365.754 71.6119 364.653 71.0153L364.637 70.9987ZM351.903 62.8784H356.245C357.363 62.8784 358.237 63.1104 358.869 63.5745C359.501 64.0385 359.825 64.6682 359.825 65.4802C359.825 66.0271 359.679 66.5077 359.404 66.9054C359.129 67.3031 358.74 67.618 358.221 67.8334C357.719 68.0323 357.104 68.1483 356.391 68.1483H351.903V62.8784ZM360.295 77.4949C359.728 77.9755 358.95 78.2241 357.962 78.2241H351.92V72.457H357.962C358.967 72.457 359.744 72.7222 360.295 73.2691C360.862 73.8159 361.153 74.5451 361.153 75.4897C361.153 76.3349 360.862 77.0143 360.295 77.5115V77.4949Z" fill="#C7C7C7"/>
<path d="M238.876 58.3543C237.256 59.0834 235.992 60.0943 235.117 61.4035C234.243 62.6961 233.805 64.2042 233.821 65.9276C233.821 67.5683 234.243 69.01 235.117 70.2529C235.96 71.4295 237.126 72.3576 238.649 73.037L233.076 83.7094H239.945L244.918 74.1639H249.519V83.7094H256.193V57.2605H244.659C242.44 57.2605 240.512 57.6251 238.876 58.3543ZM249.503 69.2089H244.594C243.298 69.2089 242.31 68.9106 241.63 68.3306C240.965 67.734 240.641 67.0048 240.658 66.1431C240.658 65.2979 240.982 64.5522 241.662 63.939C242.342 63.3258 243.347 63.011 244.659 63.011H249.503V69.2089Z" fill="#C7C7C7"/>
<path d="M234.647 31.5573H240.705V37.5067H243.362V23.1885H240.705V29.1544H234.647V23.1885H231.974V37.5067H234.647V31.5573Z" fill="#C7C7C7"/>
<path d="M276.509 67.5517H267.664V57.2605H260.812V83.7094H267.664V73.3187H276.509V83.7094H283.297V57.2605H276.509V67.5517Z" fill="#C7C7C7"/>
<path d="M320.492 34.4243C321.027 33.3471 321.302 32.0545 321.302 30.5796C321.302 29.1047 321.043 27.8783 320.541 26.8509C320.039 25.8234 319.342 25.0611 318.467 24.5308C317.593 24.0005 316.572 23.7353 315.454 23.7353C314.434 23.7353 313.526 23.9508 312.716 24.3982C311.906 24.8457 311.275 25.5085 310.821 26.3869H310.643C310.74 25.1771 310.967 24.1662 311.323 23.3708C311.68 22.5587 312.182 21.9456 312.83 21.5478C313.478 21.1336 314.304 20.9015 315.324 20.8684C316.215 20.8352 317.009 20.8021 317.706 20.769C318.403 20.7192 319.002 20.6198 319.537 20.4541C320.071 20.2884 320.541 20.0067 320.962 19.6089L319.828 17.8523C319.537 18.1009 319.164 18.25 318.727 18.3163C318.289 18.3826 317.787 18.3992 317.22 18.3992C316.637 18.3992 315.989 18.3992 315.244 18.3992C312.976 18.4489 311.258 19.2941 310.124 20.9513C308.974 22.6085 308.407 25.0777 308.407 28.3424V29.7675C308.407 31.5242 308.666 32.9991 309.201 34.1923C309.736 35.3854 310.481 36.2803 311.453 36.8935C312.425 37.4901 313.559 37.8049 314.871 37.8049C316.183 37.8049 317.317 37.5067 318.273 36.9266C319.245 36.33 319.99 35.5014 320.509 34.4243H320.492ZM316.815 34.8717C316.264 35.2694 315.616 35.4517 314.855 35.4517C313.705 35.4517 312.781 35.0209 312.117 34.1425C311.453 33.2642 311.129 32.0876 311.129 30.6127C311.129 29.8836 311.226 29.2372 311.404 28.6904C311.582 28.1269 311.825 27.6463 312.149 27.2486C312.473 26.8509 312.862 26.5691 313.299 26.3703C313.753 26.1714 314.255 26.0554 314.839 26.0554C315.616 26.0554 316.28 26.2377 316.831 26.6023C317.382 26.9503 317.803 27.4806 318.111 28.1435C318.403 28.8229 318.564 29.6515 318.564 30.6127C318.564 31.5739 318.419 32.4522 318.111 33.1814C317.819 33.9105 317.382 34.474 316.831 34.8717H316.815Z" fill="#C7C7C7"/>
<path d="M310.528 57.2605H303.757V77.9423H294.766V57.2605H287.913V83.7094H307.677V92.2108H314.643V78.6383H310.528V57.2605Z" fill="#C7C7C7"/>
<path d="M223.001 57.2605H221.219L214.204 75.5891L207.417 57.2605H205.78H201.973H198.928V83.7094H205.78V67.4688L211.823 83.7094H216.586L223.001 66.8888V83.7094H229.773V57.2605H226.662H223.001Z" fill="#C7C7C7"/>
<path d="M289.679 37.5067H292.352V23.1885H282.584L282.341 29.5355C282.292 30.6293 282.227 31.5573 282.146 32.2699C282.049 32.9991 281.919 33.5625 281.757 33.9603C281.579 34.3746 281.369 34.6563 281.093 34.8386C280.834 35.0043 280.51 35.0871 280.121 35.0871H279.619V37.5067H280.51C281.271 37.5067 281.92 37.3575 282.454 37.0758C282.989 36.7775 283.426 36.3466 283.766 35.7666C284.106 35.17 284.366 34.4408 284.544 33.5625C284.722 32.6842 284.852 31.6402 284.9 30.4636L285.127 25.5914H289.712V37.5067H289.679Z" fill="#C7C7C7"/>
<path d="M183.211 76.6828H182.936L177.59 57.2605H170.057L179.323 84.4717L178.902 85.5986C178.594 86.4272 178.173 87.0072 177.671 87.3552C177.168 87.7032 176.585 87.8524 175.905 87.8358C175.224 87.8192 174.479 87.6701 173.637 87.4049L172.017 92.8737C172.535 93.0891 173.183 93.2714 173.977 93.404C174.771 93.5531 175.629 93.636 176.537 93.636C178.302 93.636 179.825 93.3377 181.089 92.7577C182.352 92.1776 183.389 91.3656 184.199 90.2884C185.025 89.2278 185.69 87.9849 186.176 86.5763L196.22 57.2771H188.622L183.211 76.6994V76.6828Z" fill="#C7C7C7"/>
<path d="M171.128 37.5067V23.1885H159.707V37.5067H162.348V25.5914H168.455V37.5067H171.128Z" fill="#C7C7C7"/>
<path d="M394.444 63.4254C393.408 61.3705 391.95 59.7795 390.038 58.6361C388.142 57.4926 385.891 56.9126 383.266 56.9126C380.642 56.9126 378.39 57.4926 376.478 58.6361C374.583 59.7795 373.125 61.3705 372.088 63.4254C371.052 65.4637 370.533 67.8501 370.533 70.5845C370.533 73.3188 371.052 75.6721 372.088 77.727C373.125 79.7654 374.583 81.3728 376.478 82.5163C378.39 83.6598 380.642 84.2232 383.266 84.2232C385.891 84.2232 388.142 83.6598 390.038 82.5163C391.95 81.3728 393.424 79.7654 394.444 77.727C395.481 75.6721 396 73.2857 396 70.5845C396 67.8832 395.481 65.4637 394.444 63.4254ZM388.078 74.6446C387.673 75.8544 387.073 76.799 386.28 77.495C385.486 78.191 384.498 78.5224 383.299 78.5224C382.1 78.5224 381.096 78.1744 380.269 77.495C379.459 76.799 378.844 75.8378 378.439 74.6446C378.034 73.4349 377.839 72.0594 377.839 70.5348C377.839 69.0101 378.034 67.6181 378.439 66.4249C378.86 65.2152 379.459 64.2706 380.269 63.5745C381.096 62.8785 382.1 62.5305 383.299 62.5305C384.498 62.5305 385.486 62.8785 386.28 63.5745C387.073 64.2706 387.673 65.2317 388.078 66.4249C388.499 67.6347 388.693 69.0101 388.693 70.5348C388.693 72.0594 388.483 73.4514 388.078 74.6446Z" fill="#C7C7C7"/>
<path d="M337.971 60.2601C336.87 59.1498 335.574 58.3212 334.1 57.7578C332.625 57.1943 331.038 56.9126 329.337 56.9126C326.793 56.9126 324.59 57.4926 322.711 58.6361C320.832 59.7795 319.39 61.387 318.353 63.442C317.316 65.4969 316.798 67.8832 316.798 70.601C316.798 73.3188 317.316 75.8046 318.353 77.843C319.39 79.8814 320.848 81.4391 322.76 82.566C324.671 83.6598 326.972 84.2232 329.628 84.2232C331.767 84.2232 333.646 83.8918 335.266 83.2289C336.902 82.5494 338.247 81.6048 339.267 80.4116C340.304 79.2019 341.001 77.7767 341.341 76.1361L334.715 75.6886C334.472 76.3515 334.116 76.915 333.646 77.379C333.176 77.843 332.609 78.1744 331.945 78.4064C331.281 78.6385 330.552 78.7545 329.758 78.7545C328.559 78.7545 327.522 78.4893 326.648 77.9756C325.773 77.4618 325.092 76.7161 324.606 75.7715C324.137 74.8269 323.893 73.6834 323.893 72.3742L341.503 72.3577V70.3359C341.503 68.0821 341.195 66.1266 340.58 64.4528C339.964 62.7625 339.105 61.3705 337.988 60.2436L337.971 60.2601ZM323.91 67.817C323.958 66.8724 324.185 65.994 324.623 65.2152C325.092 64.3534 325.74 63.674 326.567 63.1602C327.409 62.6465 328.381 62.3814 329.466 62.3814C330.552 62.3814 331.426 62.6134 332.204 63.0939C332.998 63.558 333.63 64.1877 334.067 64.9997C334.521 65.8118 334.731 66.7563 334.731 67.8004H323.893L323.91 67.817Z" fill="#C7C7C7"/>
<path d="M114.476 20.3713L113.957 21.9456L59.1688 39.5782L58.6505 40.8873L56.8523 40.357L50.9393 46.4058C50.9393 46.4058 46.0469 48.7756 45.5447 49.0408C45.0263 49.3059 43.7464 49.3059 43.228 49.0408C42.9688 48.7756 43.228 46.671 43.228 46.671C43.228 46.671 44.0057 46.671 44.5079 46.1407C43.9895 45.3452 43.228 44.036 43.228 44.036V41.6662C43.228 41.6662 44.7671 41.4011 45.5447 40.8708C46.8245 40.0753 47.3429 38.2358 47.3429 38.2358H41.4299C41.4299 38.2358 37.8334 34.2917 37.5742 34.0266C37.315 33.7614 36.7966 33.4963 36.5374 33.4963H34.2209C33.9617 33.4963 33.4433 34.0266 32.9411 35.3357C32.4227 36.6449 32.6818 37.4404 32.6818 37.4404C32.6818 37.4404 35.7761 37.9707 36.0191 41.1194C36.2783 43.4891 36.019 48.7425 32.9248 49.2728C30.8674 49.2728 28.6804 46.3727 28.4212 41.8982C28.0324 38.2193 31.1267 37.689 31.1267 37.689C31.1267 37.689 30.349 35.054 31.9042 33.7448C28.81 34.2751 27.271 35.3192 27.271 35.3192C27.271 35.3192 23.4154 37.689 23.4154 40.3239C23.4154 42.9589 24.6953 47.1681 24.4523 48.4773C24.1931 49.7865 19.8191 52.4214 19.3007 52.4214H17.7616C17.5024 52.4214 14.4244 55.5867 13.6468 56.6307C12.8692 57.6913 11.071 60.5748 10.8118 61.3703C10.6498 61.8675 10.0828 65.8282 9.67784 68.6785C6.94003 62.8784 5.41722 56.3821 5.41722 49.5379C5.41722 25.1606 24.8085 5.34048 48.6226 5.34048C63.964 5.34048 77.4749 13.5602 85.1375 25.9394L90.1919 24.3154C81.7517 9.81491 66.2806 0.0871582 48.6226 0.0871582C21.9573 0.0871582 0.265625 22.277 0.265625 49.5545C0.265625 71.7444 14.6188 90.5701 34.3342 96.8177L34.8688 94.4148C34.8688 94.4148 33.9617 90.8684 34.3504 90.4707C34.7393 90.073 36.2782 88.7638 36.5374 87.438C36.7966 86.1288 36.2782 84.8031 36.1486 84.1568C36.019 83.4939 36.019 82.4499 36.1486 82.0521C36.2782 81.6544 37.6877 79.9475 38.0765 78.5057C38.4653 77.064 37.8172 75.0919 37.6876 74.1639C37.558 73.2358 37.2988 72.1918 37.6876 71.7941C38.0764 71.3963 39.8747 70.3523 41.2841 69.1591C42.6935 67.9825 44.6213 65.0824 45.5285 64.6847C46.8083 64.0218 49.2544 63.8892 49.2544 63.8892L54.5194 63.2264C54.5194 63.2264 57.6137 62.6961 58.5047 62.2983C59.4119 61.9006 61.8419 59.9285 61.8419 59.9285C61.8419 59.9285 66.864 55.5867 67.2366 55.1889C67.6254 54.7912 67.7549 53.8798 68.3867 52.6866C69.0347 51.51 69.9257 49.5213 70.8329 48.6099C72.5015 46.6378 74.9476 45.7098 74.9476 45.7098L73.668 41.7657C73.668 41.7657 74.575 41.8982 75.9844 41.7657C77.3938 41.6331 77.9124 41.6331 78.5604 41.2354C79.2084 40.8376 79.9696 39.7936 80.6176 39.3959C81.2656 38.9981 82.416 38.6004 82.416 38.6004L83.6957 38.3353V36.2306C83.6957 36.2306 85.4939 36.2306 86.4011 35.5677C87.3083 34.9049 87.5513 33.5957 87.5513 33.5957L116.744 23.9839L115.707 19.7747L114.427 20.305L114.476 20.3713Z" fill="#C7C7C7"/>
<path d="M12.1064 49.5876C12.1064 50.2505 12.1226 50.8968 12.155 51.5431L17.3876 46.6544C18.8456 30.3144 32.2916 17.4877 48.6374 17.4877C58.649 17.4877 67.5752 22.3101 73.3262 29.8007L78.5103 28.1269C71.9007 18.5152 60.9656 12.2344 48.6374 12.2344C28.5008 12.2344 12.1064 28.9886 12.1064 49.6042V49.5876Z" fill="#C7C7C7"/>
<path d="M48.6232 81.6876C45.934 81.6876 43.3259 81.3396 40.8311 80.6767L39.8916 85.8637C42.6942 86.5763 45.61 86.9409 48.6232 86.9409C68.7599 86.9409 85.1544 70.1866 85.1544 49.5711C85.1544 47.483 84.9923 45.4447 84.6683 43.4561L79.7112 45.0635C79.9218 46.5384 80.0189 48.0465 80.0189 49.5711C80.0189 67.27 65.9411 81.671 48.6395 81.671L48.6232 81.6876Z" fill="#C7C7C7"/>
<path d="M90.597 39.0645C91.407 42.4286 91.8283 45.9585 91.8283 49.5712C91.8283 73.9485 72.4367 93.7686 48.6227 93.7686C45.2045 93.7686 41.8675 93.3543 38.6761 92.592L37.7363 97.779C41.2355 98.6076 44.8807 99.0385 48.6067 99.0385C75.2719 99.0385 96.9637 76.8486 96.9637 49.5712C96.9637 45.395 96.4615 41.3515 95.5057 37.4736L90.5808 39.0645H90.597Z" fill="#C7C7C7"/>
</svg>
