<svg width="381" height="101" viewBox="0 0 381 101" fill="none" xmlns="http://www.w3.org/2000/svg">
<path d="M123.783 21.2891V22.4988C126.635 22.6977 129.502 24.4212 129.502 28.6967C129.502 32.9723 126.716 34.6461 123.735 34.9444V36.1873H120.884V34.9444C117.968 34.7124 115.165 33.022 115.165 28.8127C115.165 24.6034 118.34 22.7308 120.932 22.5154V21.3056H123.783V21.2891ZM120.9 24.62C119.717 24.7857 118.211 25.8464 118.211 28.7464C118.211 31.4311 119.701 32.6243 120.9 32.79V24.6366V24.62ZM123.751 32.7734C124.934 32.6243 126.44 31.6134 126.44 28.6967C126.44 25.7801 124.998 24.7857 123.751 24.62V32.7734Z" fill="#C7C7C7"/>
<path d="M139.514 29.8072H134.573V33.0718H140.097V35.6239H131.527V21.8857H139.822V24.4378H134.573V27.2882H139.514V29.8237V29.8072Z" fill="#C7C7C7"/>
<path d="M153.024 21.8691V33.1712L154.353 33.2541L154.207 39.104H151.89L151.728 35.6238H143.871L143.709 39.104H141.393L141.279 33.2541L142.397 33.1712C142.932 32.1935 143.369 31.1991 143.677 30.1054C144.049 28.7133 144.211 27.2219 144.211 25.5315V21.8525H153.008L153.024 21.8691ZM147.047 26.2275C147.047 27.8184 146.852 29.3762 146.447 30.7517C146.204 31.5803 145.864 32.4255 145.507 33.0718H149.979V24.388H147.047V26.2275Z" fill="#C7C7C7"/>
<path d="M164.072 29.8072H159.131V33.0718H164.655V35.6239H156.085V21.8857H164.379V24.4378H159.131V27.2882H164.072V29.8237V29.8072Z" fill="#C7C7C7"/>
<path d="M166.714 22.0513C167.653 21.8855 168.966 21.7695 170.829 21.7695C172.692 21.7695 174.036 22.1341 174.927 22.8633C175.786 23.5593 176.369 24.7028 176.369 26.0451C176.369 27.3874 175.932 28.5309 175.138 29.3098C174.101 30.3041 172.562 30.7515 170.764 30.7515C170.359 30.7515 170.003 30.735 169.727 30.6853V35.6071H166.714V22.0513ZM169.727 28.2989C169.986 28.3652 170.31 28.3818 170.748 28.3818C172.368 28.3818 173.356 27.5532 173.356 26.1445C173.356 24.8851 172.497 24.1228 170.991 24.1228C170.375 24.1228 169.954 24.189 169.727 24.2388V28.2989Z" fill="#C7C7C7"/>
<path d="M180.225 32.0775L179.269 35.6073H176.126L180.241 21.8691H184.226L188.389 35.6073H185.117L184.08 32.0775H180.225ZM183.626 29.7574L182.784 26.8407C182.541 26.0287 182.298 25.0012 182.104 24.1892H182.071C181.877 25.0012 181.666 26.0453 181.456 26.8407L180.662 29.7574H183.626Z" fill="#C7C7C7"/>
<path d="M193.217 21.8691V33.0718H197.915V21.8691H200.944V33.1712L202.305 33.2541L202.159 39.104H199.843L199.681 35.6239H190.155V21.8857H193.201L193.217 21.8691Z" fill="#C7C7C7"/>
<path d="M206.791 21.8691V25.9458C206.791 28.1499 206.759 30.3374 206.629 32.1603H206.71C207.407 30.5528 208.298 28.7299 209.108 27.2716L211.991 21.8691H215.102V35.6073H212.316V31.5471C212.316 29.4259 212.348 27.5533 212.542 25.7469H212.477C211.862 27.371 211.003 29.1939 210.21 30.6357L207.472 35.5907H204.005V21.8525H206.791V21.8691Z" fill="#C7C7C7"/>
<path d="M216.595 35.6073C216.87 35.1599 217.097 34.6296 217.275 34.0496C217.81 32.4752 218.134 30.8678 219.154 29.8734C219.446 29.5751 219.851 29.3431 220.272 29.1608V29.0946C218.782 28.8128 217.437 27.7522 217.437 25.747C217.437 24.4544 217.988 23.4767 218.83 22.8304C219.867 22.0183 221.503 21.7532 223.22 21.7532C224.695 21.7532 226.104 21.8692 227.092 22.0349V35.5908H224.079V30.1883H223.334C222.734 30.1883 222.265 30.3706 221.892 30.7186C221.034 31.5472 220.693 33.3038 220.304 34.4307C220.159 34.845 220.062 35.1599 219.819 35.5908H216.595V35.6073ZM224.079 24.1893C223.852 24.1561 223.464 24.0733 222.848 24.0733C221.536 24.0733 220.483 24.6367 220.483 26.0453C220.483 27.3048 221.617 27.9842 222.994 27.9842C223.399 27.9842 223.804 27.9677 224.095 27.9179V24.1893H224.079Z" fill="#C7C7C7"/>
<path d="M126.036 46.7603V60.4984H122.99V49.2958H118.227V60.4984H115.182V46.7603H126.052H126.036Z" fill="#C7C7C7"/>
<path d="M130.782 46.7603L132.742 51.5993C133.098 52.577 133.374 53.389 133.682 54.2342H133.746C133.924 53.6376 134.151 52.7262 134.492 51.5661L135.949 46.7768H139.141L136.63 53.4388C135.82 55.5765 134.978 57.6646 133.973 58.9241C133.098 60.051 131.98 60.747 130.409 60.747C129.712 60.747 129.291 60.6641 128.919 60.515L129.146 58.0292C129.389 58.0955 129.696 58.1286 130.15 58.1286C131.09 58.1286 131.721 57.4823 131.964 56.836C132.078 56.604 132.029 56.4217 131.932 56.2063L127.412 46.7603H130.847H130.782Z" fill="#C7C7C7"/>
<path d="M150.11 46.7603V60.4984H147.081V49.2958H144.035V52.5604C144.035 56.0903 143.598 58.8081 141.556 60.0178C140.876 60.399 139.969 60.6973 138.883 60.6973L138.511 58.1949C139.175 58.1121 139.71 57.8303 140.05 57.4657C140.86 56.604 141.07 54.8474 141.07 52.7759V46.7603H150.126H150.11Z" fill="#C7C7C7"/>
<path d="M160.751 54.6983H155.81V57.9629H161.335V60.515H152.765V46.7769H161.059V49.3289H155.81V52.1793H160.751V54.7148V54.6983Z" fill="#C7C7C7"/>
<path d="M163.41 46.9426C164.204 46.7769 165.824 46.6609 167.331 46.6609C169.177 46.6609 170.328 46.8432 171.3 47.4398C172.239 47.9535 172.92 48.8815 172.92 50.1244C172.92 51.3673 172.223 52.4942 170.7 53.0577V53.0908C172.239 53.5217 173.373 54.6983 173.373 56.4715C173.373 57.7144 172.822 58.6921 171.98 59.3882C171.008 60.1836 169.372 60.6311 166.699 60.6311C165.208 60.6311 164.091 60.5316 163.41 60.4322V46.926V46.9426ZM166.423 52.2125H167.428C169.015 52.2125 169.874 51.5331 169.874 50.5222C169.874 49.5113 169.096 48.9313 167.719 48.9313C167.055 48.9313 166.683 48.9644 166.423 49.0141V52.2125ZM166.423 58.311C166.715 58.3441 167.088 58.3441 167.606 58.3441C168.983 58.3441 170.198 57.8138 170.198 56.3721C170.198 54.9303 168.983 54.4331 167.46 54.4331H166.423V58.311Z" fill="#C7C7C7"/>
<path d="M187.678 53.4886C187.678 57.9962 185.005 60.7305 181.085 60.7305C177.164 60.7305 174.767 57.6481 174.767 53.7371C174.767 49.6107 177.342 46.5449 181.311 46.5449C185.28 46.5449 187.694 49.7102 187.694 53.5051L187.678 53.4886ZM177.958 53.6709C177.958 56.3555 179.189 58.2613 181.23 58.2613C183.272 58.2613 184.454 56.2561 184.454 53.588C184.454 51.1188 183.304 48.9976 181.198 48.9976C179.092 48.9976 177.942 51.0028 177.942 53.6709H177.958Z" fill="#C7C7C7"/>
<path d="M192.456 46.7603V50.837C192.456 53.041 192.424 55.2285 192.294 57.0515H192.375C193.072 55.444 193.963 53.6211 194.773 52.1627L197.657 46.7603H200.767V60.4984H197.981V56.4383C197.981 54.3171 198.013 52.4445 198.207 50.6381H198.143C197.527 52.2622 196.668 54.0851 195.874 55.5268L193.137 60.4819H189.67V46.7437H192.456V46.7603ZM194.336 43.6282C194.352 44.4236 194.579 44.8711 195.21 44.8711C195.842 44.8711 196.069 44.4236 196.15 43.6282H198.191C198.078 45.3848 196.96 46.1305 195.178 46.1305C193.396 46.1305 192.424 45.3351 192.262 43.6282H194.336Z" fill="#C7C7C7"/>
<path d="M211.135 46.7602V50.8369C211.135 53.041 211.103 55.2285 210.973 57.0514H211.054C211.751 55.4439 212.642 53.621 213.452 52.1627L216.335 46.7602H219.446V60.4984H216.659V56.4383C216.659 54.3171 216.692 52.4444 216.886 50.6381H216.821C216.206 52.2621 215.347 54.085 214.553 55.5268L211.815 60.4818H208.349V46.7437H211.135V46.7602Z" fill="#C7C7C7"/>
<path d="M235.984 60.1173C235.434 60.3991 234.17 60.7139 232.534 60.7139C227.884 60.7139 225.503 57.7641 225.503 53.8366C225.503 49.1467 228.775 46.5283 232.841 46.5283C234.413 46.5283 235.612 46.8598 236.146 47.1415L235.531 49.6107C234.915 49.3456 234.057 49.097 232.971 49.097C230.557 49.097 228.678 50.5885 228.678 53.6377C228.678 56.3886 230.266 58.1287 232.987 58.1287C233.911 58.1287 234.915 57.9298 235.515 57.6813L235.968 60.1008L235.984 60.1173Z" fill="#C7C7C7"/>
<path d="M240.959 49.3786H237.347V46.7603H247.666V49.3786H244.005V60.515H240.959V49.3786Z" fill="#C7C7C7"/>
<path d="M257.288 54.6983H252.347V57.9629H257.872V60.515H249.302V46.7769H257.596V49.3289H252.347V52.1793H257.288V54.7148V54.6983Z" fill="#C7C7C7"/>
<path d="M262.991 46.7603V52.0467H267.997V46.7603H271.026V60.4984H267.997V54.7479H262.991V60.4984H259.945V46.7603H262.991Z" fill="#C7C7C7"/>
<path d="M284.343 46.7602V58.0623L285.671 58.1452L285.525 63.9951H283.209L283.047 60.515H275.19L275.028 63.9951H272.711L272.598 58.1452L273.715 58.0623C274.25 57.0846 274.687 56.0902 274.995 54.9965C275.368 53.6045 275.53 52.113 275.53 50.4226V46.7437H284.326L284.343 46.7602ZM278.365 51.1352C278.365 52.7261 278.17 54.2839 277.765 55.6594C277.522 56.488 277.182 57.3332 276.826 57.9795H281.297V49.2957H278.365V51.1352Z" fill="#C7C7C7"/>
<path d="M299.553 53.4886C299.553 57.9962 296.88 60.7305 292.96 60.7305C289.039 60.7305 286.642 57.6481 286.642 53.7371C286.642 49.6107 289.217 46.5449 293.186 46.5449C297.155 46.5449 299.569 49.7102 299.569 53.5051L299.553 53.4886ZM289.833 53.6709C289.833 56.3555 291.064 58.2613 293.105 58.2613C295.147 58.2613 296.329 56.2561 296.329 53.588C296.329 51.1188 295.179 48.9976 293.073 48.9976C290.967 48.9976 289.817 51.0028 289.817 53.6709H289.833Z" fill="#C7C7C7"/>
<path d="M301.546 46.9426C302.34 46.7769 303.96 46.6609 305.466 46.6609C307.313 46.6609 308.463 46.8432 309.435 47.4398C310.375 47.9535 311.055 48.8815 311.055 50.1244C311.055 51.3673 310.359 52.4942 308.836 53.0577V53.0908C310.375 53.5217 311.509 54.6983 311.509 56.4715C311.509 57.7144 310.958 58.6921 310.116 59.3882C309.144 60.1836 307.507 60.6311 304.834 60.6311C303.344 60.6311 302.226 60.5316 301.546 60.4322V46.926V46.9426ZM304.559 52.2125H305.563C307.151 52.2125 308.01 51.5331 308.01 50.5222C308.01 49.5113 307.232 48.9313 305.855 48.9313C305.191 48.9313 304.818 48.9644 304.559 49.0141V52.2125ZM304.559 58.311C304.851 58.3441 305.223 58.3441 305.742 58.3441C307.119 58.3441 308.334 57.8138 308.334 56.3721C308.334 54.9303 307.119 54.4331 305.596 54.4331H304.559V58.311Z" fill="#C7C7C7"/>
<path d="M325.814 53.4886C325.814 57.9962 323.141 60.7305 319.22 60.7305C315.3 60.7305 312.902 57.6481 312.902 53.7371C312.902 49.6107 315.478 46.5449 319.447 46.5449C323.416 46.5449 325.83 49.7102 325.83 53.5051L325.814 53.4886ZM316.094 53.6709C316.094 56.3555 317.325 58.2613 319.366 58.2613C321.407 58.2613 322.59 56.2561 322.59 53.588C322.59 51.1188 321.44 48.9976 319.334 48.9976C317.228 48.9976 316.077 51.0028 316.077 53.6709H316.094Z" fill="#C7C7C7"/>
<path d="M330.594 46.7603V50.837C330.594 53.041 330.562 55.2285 330.432 57.0515H330.513C331.21 55.444 332.101 53.6211 332.911 52.1627L335.794 46.7603H338.905V60.4984H336.118V56.4383C336.118 54.3171 336.151 52.4445 336.345 50.6381H336.28C335.665 52.2622 334.806 54.0851 334.012 55.5268L331.274 60.4819H327.808V46.7437H330.594V46.7603ZM332.473 43.6282C332.489 44.4236 332.716 44.8711 333.348 44.8711C333.98 44.8711 334.207 44.4236 334.288 43.6282H336.329C336.215 45.3848 335.098 46.1305 333.316 46.1305C331.534 46.1305 330.562 45.3351 330.4 43.6282H332.473Z" fill="#C7C7C7"/>
<path d="M125.646 85.2404C125.096 85.5221 123.832 85.837 122.196 85.837C117.546 85.837 115.165 82.8872 115.165 78.9596C115.165 74.2697 118.437 71.6514 122.504 71.6514C124.075 71.6514 125.274 71.9828 125.808 72.2645L125.193 74.7338C124.577 74.4686 123.719 74.22 122.633 74.22C120.219 74.22 118.34 75.7115 118.34 78.7607C118.34 81.5117 119.928 83.2517 122.649 83.2517C123.573 83.2517 124.577 83.0529 125.177 82.8043L125.63 85.2238L125.646 85.2404Z" fill="#C7C7C7"/>
<path d="M130.619 74.5017H127.007V71.8833H137.326V74.5017H133.665V85.638H130.619V74.5017Z" fill="#C7C7C7"/>
<path d="M138.946 72.0657C139.886 71.8999 141.198 71.7839 143.045 71.7839C144.892 71.7839 146.253 72.1485 147.16 72.8777C148.018 73.5737 148.601 74.7172 148.601 76.0595C148.601 77.4018 148.164 78.5453 147.37 79.3242C146.334 80.3185 144.794 80.766 142.996 80.766C142.591 80.766 142.235 80.7494 141.959 80.6997V85.6215H138.946V72.0657ZM141.959 78.3133C142.219 78.3796 142.543 78.3962 142.98 78.3962C144.6 78.3962 145.588 77.5676 145.588 76.1589C145.588 74.8995 144.73 74.1372 143.223 74.1372C142.607 74.1372 142.186 74.2035 141.959 74.2532V78.3133Z" fill="#C7C7C7"/>
<path d="M158.533 79.8213H153.592V83.086H159.116V85.6381H150.546V71.8999H158.84V74.452H153.592V77.3024H158.533V79.8379V79.8213Z" fill="#C7C7C7"/>
<path d="M171.638 71.8833V85.6215H168.609V74.4188H165.563V77.6835C165.563 81.2133 165.126 83.9311 163.085 85.1409C162.404 85.522 161.497 85.8203 160.412 85.8203L160.039 83.318C160.703 83.2351 161.238 82.9534 161.578 82.5888C162.388 81.727 162.599 79.9704 162.599 77.8989V71.8833H171.655H171.638Z" fill="#C7C7C7"/>
<path d="M177.325 71.8833V76.656C177.746 76.6229 178.378 76.5566 178.961 76.5566C181.845 76.5566 184.307 77.9652 184.307 81.0144C184.307 82.3236 183.886 83.3014 183.238 84.014C181.942 85.3563 179.69 85.7706 177.6 85.7706C176.11 85.7706 174.992 85.6712 174.312 85.5717V71.8833H177.341H177.325ZM177.309 83.3677C177.649 83.434 178.005 83.4505 178.443 83.4505C179.917 83.4505 181.116 82.7214 181.116 81.1636C181.116 79.6058 179.933 78.9429 178.491 78.9429C178.054 78.9429 177.697 78.9761 177.309 79.0258V83.3677Z" fill="#C7C7C7"/>
<path d="M195.243 71.8833V74.4188H189.346V76.7886C189.799 76.7223 190.447 76.6892 190.982 76.6892C192.343 76.6892 193.752 77.0372 194.773 77.8161C195.712 78.5121 196.328 79.5893 196.328 81.0973C196.328 82.4396 195.826 83.4837 195.048 84.1963C193.752 85.3729 191.646 85.7872 189.589 85.7872C188.098 85.7872 186.997 85.6877 186.316 85.5883V71.8999H195.243V71.8833ZM189.33 83.3677C189.67 83.434 190.091 83.4505 190.512 83.4505C191.257 83.4505 191.986 83.2019 192.489 82.7379C192.894 82.3734 193.153 81.8265 193.153 81.147C193.153 80.4676 192.877 79.9373 192.44 79.5893C191.905 79.1584 191.144 78.9761 190.431 78.9761C190.091 78.9761 189.735 78.9927 189.362 79.059V83.3677H189.33Z" fill="#C7C7C7"/>
<path d="M201.364 71.8833V76.6726C201.737 76.6063 202.369 76.5566 202.855 76.5566C205.625 76.5566 208.185 77.9652 208.185 81.0642C208.185 82.3568 207.763 83.3014 207.115 84.014C205.819 85.3563 203.568 85.7706 201.591 85.7706C200.133 85.7706 199.015 85.6712 198.335 85.5717V71.8833H201.364ZM201.348 83.3677C201.607 83.434 201.964 83.4505 202.385 83.4505C203.713 83.4505 204.993 82.6551 204.993 81.147C204.993 79.639 203.584 78.9429 202.417 78.9429C201.996 78.9429 201.64 78.9761 201.348 79.0258V83.3677ZM212.445 71.8833V85.6215H209.416V71.8833H212.445Z" fill="#C7C7C7"/>
<path d="M228.208 71.8833V74.4354H223.121V85.638H220.075V71.8999H228.208V71.8833Z" fill="#C7C7C7"/>
<path d="M241.478 78.6116C241.478 83.1192 238.805 85.8536 234.884 85.8536C230.964 85.8536 228.566 82.7712 228.566 78.8602C228.566 74.7338 231.142 71.668 235.111 71.668C239.08 71.668 241.494 74.8332 241.494 78.6282L241.478 78.6116ZM231.758 78.7939C231.758 81.4786 232.989 83.3843 235.03 83.3843C237.071 83.3843 238.254 81.3791 238.254 78.7111C238.254 76.2418 237.104 74.1206 234.998 74.1206C232.892 74.1206 231.742 76.1258 231.742 78.7939H231.758Z" fill="#C7C7C7"/>
<path d="M243.471 72.0657C244.41 71.8999 245.723 71.7839 247.569 71.7839C249.416 71.7839 250.777 72.1485 251.684 72.8777C252.543 73.5737 253.126 74.7172 253.126 76.0595C253.126 77.4018 252.689 78.5453 251.895 79.3242C250.858 80.3185 249.319 80.766 247.521 80.766C247.116 80.766 246.759 80.7494 246.484 80.6997V85.6215H243.471V72.0657ZM246.484 78.2967C246.743 78.363 247.067 78.3796 247.505 78.3796C249.125 78.3796 250.113 77.551 250.113 76.1424C250.113 74.8829 249.254 74.1206 247.748 74.1206C247.132 74.1206 246.711 74.1869 246.484 74.2366V78.2967Z" fill="#C7C7C7"/>
<path d="M267.284 78.6116C267.284 83.1192 264.611 85.8536 260.691 85.8536C256.771 85.8536 254.373 82.7712 254.373 78.8602C254.373 74.7338 256.949 71.668 260.918 71.668C264.887 71.668 267.301 74.8332 267.301 78.6282L267.284 78.6116ZM257.581 78.7939C257.581 81.4786 258.812 83.3843 260.853 83.3843C262.894 83.3843 264.077 81.3791 264.077 78.7111C264.077 76.2418 262.927 74.1206 260.821 74.1206C258.715 74.1206 257.564 76.1258 257.564 78.7939H257.581Z" fill="#C7C7C7"/>
<path d="M279.45 71.8835V83.1856L280.779 83.2685L280.633 89.1184H278.316L278.154 85.6382H270.297L270.135 89.1184H267.818L267.705 83.2685L268.823 83.1856C269.357 82.2079 269.795 81.2135 270.103 80.1198C270.475 78.7277 270.637 77.2363 270.637 75.5459V71.8669H279.434L279.45 71.8835ZM273.472 76.2419C273.472 77.8329 273.278 79.3906 272.873 80.7661C272.63 81.5947 272.29 82.4399 271.933 83.0862H276.404V74.4025H273.472V76.2419Z" fill="#C7C7C7"/>
<path d="M285.785 82.0916L284.829 85.6215H281.687L285.801 71.8833H289.787L293.95 85.6215H290.678L289.641 82.0916H285.785ZM289.203 79.7715L288.361 76.8549C288.118 76.0429 287.875 75.0154 287.681 74.2034H287.648C287.454 75.0154 287.243 76.0594 287.033 76.8549L286.239 79.7715H289.203Z" fill="#C7C7C7"/>
<path d="M311.137 80.3518C311.072 78.6946 311.023 76.706 311.023 74.7007H310.959C310.537 76.4574 309.987 78.4129 309.468 80.0203L307.832 85.3897H305.467L304.025 80.0701C303.587 78.4626 303.134 76.5071 302.81 74.7007H302.778C302.697 76.5568 302.632 78.678 302.534 80.3849L302.291 85.6051H299.473L300.331 71.8669H304.381L305.694 76.4574C306.115 78.0483 306.536 79.7552 306.828 81.3793H306.892C307.265 79.7883 307.735 77.9654 308.172 76.4408L309.614 71.8669H313.583L314.328 85.6051H311.364L311.169 80.3352L311.137 80.3518Z" fill="#C7C7C7"/>
<path d="M328.827 78.6116C328.827 83.1192 326.154 85.8536 322.234 85.8536C318.314 85.8536 315.916 82.7712 315.916 78.8602C315.916 74.7338 318.492 71.668 322.461 71.668C326.43 71.668 328.844 74.8332 328.844 78.6282L328.827 78.6116ZM319.124 78.7939C319.124 81.4786 320.355 83.3843 322.396 83.3843C324.437 83.3843 325.62 81.3791 325.62 78.7111C325.62 76.2418 324.47 74.1206 322.364 74.1206C320.258 74.1206 319.107 76.1258 319.107 78.7939H319.124Z" fill="#C7C7C7"/>
<path d="M340.703 85.2404C340.152 85.5221 338.889 85.837 337.252 85.837C332.603 85.837 330.222 82.8872 330.222 78.9596C330.222 74.2697 333.494 71.6514 337.56 71.6514C339.132 71.6514 340.33 71.9828 340.865 72.2645L340.25 74.7338C339.634 74.4686 338.775 74.22 337.69 74.22C335.276 74.22 333.397 75.7115 333.397 78.7607C333.397 81.5117 334.984 83.2517 337.706 83.2517C338.629 83.2517 339.634 83.0529 340.233 82.8043L340.687 85.2238L340.703 85.2404Z" fill="#C7C7C7"/>
<path d="M345.708 71.8833V77.6006H345.967L349.677 71.8833H353.371L348.689 77.9818C350.422 78.4292 351.2 79.6555 351.767 81.3127C352.253 82.7876 352.69 84.2626 353.322 85.638H350.05C349.596 84.6934 349.337 83.6328 349.013 82.6219C348.559 81.0642 347.944 79.8876 346.307 79.8876H345.724V85.638H342.711V71.8999H345.724L345.708 71.8833Z" fill="#C7C7C7"/>
<path d="M354.747 72.0657C355.541 71.8999 357.161 71.7839 358.668 71.7839C360.514 71.7839 361.664 71.9662 362.636 72.5628C363.576 73.0766 364.256 74.0046 364.256 75.2475C364.256 76.4904 363.56 77.6173 362.037 78.1807V78.2139C363.576 78.6447 364.71 79.8214 364.71 81.5946C364.71 82.8374 364.159 83.8152 363.317 84.5112C362.345 85.3067 360.709 85.7541 358.036 85.7541C356.545 85.7541 355.427 85.6547 354.747 85.5552V72.0491V72.0657ZM357.76 77.319H358.765C360.352 77.319 361.211 76.6395 361.211 75.6286C361.211 74.6177 360.433 74.0377 359.056 74.0377C358.392 74.0377 358.02 74.0709 357.76 74.1206V77.319ZM357.76 83.4175C358.052 83.4506 358.425 83.4506 358.943 83.4506C360.32 83.4506 361.535 82.9203 361.535 81.4785C361.535 80.0368 360.32 79.5396 358.797 79.5396H357.76V83.4175Z" fill="#C7C7C7"/>
<path d="M369.831 71.8833V76.6726C370.204 76.6063 370.836 76.5566 371.322 76.5566C374.092 76.5566 376.651 77.9652 376.651 81.0642C376.651 82.3568 376.23 83.3014 375.582 84.014C374.286 85.3563 372.034 85.7706 370.058 85.7706C368.6 85.7706 367.482 85.6712 366.802 85.5717V71.8833H369.831ZM369.799 83.3511C370.058 83.4174 370.414 83.434 370.836 83.434C372.164 83.434 373.444 82.6385 373.444 81.1304C373.444 79.6224 372.034 78.9264 370.868 78.9264C370.447 78.9264 370.09 78.9595 369.799 79.0092V83.3511ZM380.912 71.8833V85.6215H377.883V71.8833H380.912Z" fill="#C7C7C7"/>
<path d="M49.2969 15.8701C30.5697 15.8701 15.374 31.3981 15.374 50.5718C15.374 69.7456 30.5535 85.2735 49.2969 85.2735C68.0403 85.2735 83.2197 69.7456 83.2197 50.5718C83.2197 31.3981 68.0403 15.8701 49.2969 15.8701ZM49.2969 79.4236C33.7125 79.4236 21.0927 66.5141 21.0927 50.5718C21.0927 34.6296 33.7125 21.72 49.2969 21.72C64.8813 21.72 77.5012 34.6296 77.5012 50.5718C77.5012 66.5141 64.8813 79.4236 49.2969 79.4236Z" fill="#C7C7C7"/>
<path d="M49.2973 31.282C38.8807 31.282 30.4404 39.916 30.4404 50.5718C30.4404 61.2275 38.8807 69.8615 49.2973 69.8615C59.7139 69.8615 68.1541 61.2275 68.1541 50.5718C68.1541 39.916 59.7139 31.282 49.2973 31.282ZM49.2973 64.0945C41.9911 64.0945 36.0619 58.0291 36.0619 50.5552C36.0619 43.0812 41.9911 37.0159 49.2973 37.0159C56.6035 37.0159 62.5327 43.0812 62.5327 50.5552C62.5327 58.0291 56.6035 64.0945 49.2973 64.0945Z" fill="#C7C7C7"/>
<path d="M50.7727 47.3237C49.0231 46.4951 46.9494 47.2906 46.1394 49.0804C45.3294 50.8701 46.107 52.9914 47.8566 53.82C49.6062 54.6486 51.6799 53.8531 52.4899 52.0633C53.2999 50.2736 52.5223 48.1523 50.7727 47.3237Z" fill="#C7C7C7"/>
<path d="M45.6679 6.37462V0.143555C21.2706 1.96647 1.782 21.886 0 46.8599H6.09123C7.84083 25.333 24.6078 8.18095 45.6517 6.39118L45.6679 6.37462Z" fill="#C7C7C7"/>
<path d="M92.5022 46.8431H98.5934C96.8114 21.8857 77.339 1.94963 52.9255 0.126709V6.35777C73.9694 8.14754 90.7365 25.2995 92.4861 46.8265L92.5022 46.8431Z" fill="#C7C7C7"/>
<path d="M6.10588 54.2839H0.0146484C1.79665 79.2413 21.2691 99.1774 45.6825 101V94.7693C24.6387 92.9795 7.87169 75.8275 6.12209 54.3005L6.10588 54.2839Z" fill="#C7C7C7"/>
<path d="M52.9414 94.7527V100.984C77.3386 99.1608 96.8273 79.2413 98.6093 54.2673H92.5181C90.7685 75.7943 74.0015 92.9463 52.9576 94.7361L52.9414 94.7527Z" fill="#C7C7C7"/>
</svg>
